<svg width="165" height="35" viewBox="0 0 165 35" fill="none" xmlns="http://www.w3.org/2000/svg">
  <g clip-path="url(#clip0_42_2050)">
    <path d="M11.3718 4.59961H3.10693V6.36236H11.3718V4.59961Z" fill="white"/>
    <path d="M4.35398 6.80322H1.90479V7.07536H4.35398V6.80322Z" fill="white"/>
    <path d="M6.53122 26.397H2.44922V26.6691H6.53122V26.397Z" fill="white"/>
    <path d="M5.39782 25.5806H1.3606V26.0855H5.39782V25.5806Z" fill="white"/>
    <path d="M33.7444 28.5737H26.6689V30.2065H33.7444V28.5737Z" fill="white"/>
    <path d="M31.2506 30.6807H27.2134V31.1856H31.2506V30.6807Z" fill="white"/>
    <path d="M13.8786 19.0493H8.16382V20.6821H13.8786V19.0493Z" fill="white"/>
    <path
      d="M22.2828 24.4605V23.2675H24.8999C25.4442 22.7233 25.4442 22.7233 26.0114 21.9995L22.5449 19.7412C21.7074 21.0052 20.2789 21.8375 18.655 21.8375C16.0757 21.8375 13.9866 19.7365 13.9866 17.1446C13.9866 14.5542 16.0757 12.4532 18.655 12.4532C20.296 12.4532 21.7384 13.3027 22.5697 14.5885L26.0579 12.3613C24.4914 9.92054 21.7617 8.30273 18.655 8.30273C13.7958 8.30273 9.85474 12.2615 9.85474 17.1446C9.85474 22.0292 13.7958 25.988 18.655 25.988C20.4883 25.988 22.1913 25.4253 23.5996 24.4605H22.2828Z"
      fill="white"/>
    <path d="M12.9564 21.1772H8.91919V21.6822H12.9564V21.1772Z" fill="white"/>
    <path d="M24.7639 9.25244H20.6819V9.52457H24.7639V9.25244Z" fill="white"/>
    <path d="M26.6241 9.79688H22.5869V10.3019H26.6241V9.79688Z" fill="white"/>
    <path
      d="M7.23387 10.1022H7.65252C6.36012 12.1365 5.6099 14.5508 5.6099 17.1444C5.6099 24.3846 11.4506 30.2531 18.6553 30.2531C23.1823 30.2531 27.1695 27.9332 29.5066 24.4133L32.7838 26.548C29.7487 31.1451 24.5543 34.1739 18.6553 34.1739C14.4288 34.1739 10.5627 32.6186 7.59328 30.0427H9.58362H9.69848V29.9279V28.1636V28.0487H9.58362H5.63896C3.18532 25.096 1.70934 21.2945 1.70934 17.1444C1.70934 7.73892 9.29706 0.114861 18.6553 0.114861C21.0565 0.114861 23.3408 0.617183 25.41 1.52165H22.8911H22.7762V1.63651V2.14149V2.25635H22.8911H26.8891C29.3093 3.61172 31.3657 5.54532 32.8725 7.8719L29.5748 9.97862C27.2477 6.4023 23.2261 4.0372 18.6553 4.0372C14.9378 4.0372 11.5846 5.60268 9.20839 8.10977H7.23387H7.11901V8.22463V9.98739V10.1022H7.23387Z"
      fill="white" stroke="white" stroke-width="0.229723"/>
  </g>
  <path
    d="M148.266 21.3848H148.369L148.448 21.32L149.302 20.6221H163.44V32.0877H161.302V31.6149V31.3278H161.015H147.467H147.363L147.283 31.3944L146.451 32.0877H128.037V31.6291V31.342H127.75H125.393V29.5564V29.2692H125.106H124.434V24.124L128.906 20.6221H131.424V21.0977V21.3848H131.712H148.266Z"
    stroke="white" stroke-width="0.574307"/>
  <path d="M148.101 20.7715H132.125V20.0088H149.016L148.101 20.7715Z" fill="white"/>
  <path d="M147.709 31.8843H160.599V32.647H146.79L147.709 31.8843Z" fill="white"/>
  <path d="M124.697 31.9524V29.874H123.724V32.4515V32.7152H127.342V31.9524H124.697Z" fill="white"/>
  <path
    d="M57.5958 11.2053H44.6438C43.7491 11.2053 42.9827 10.876 42.3444 10.2175C41.706 9.559 41.3869 8.76728 41.3869 7.84737C41.3869 6.89982 41.706 6.09553 42.3444 5.43701C42.9827 4.7785 43.7491 4.44925 44.6438 4.44925H54.9521L57.5958 1.84033H44.6438C43.5958 1.84033 42.6258 2.11681 41.7312 2.66976C40.8365 3.19757 40.1229 3.92143 39.5851 4.84385C39.0749 5.73862 38.8186 6.74147 38.8186 7.84737C38.8186 8.92813 39.0749 9.92847 39.5851 10.8509C40.1203 11.7457 40.8365 12.472 41.7312 13.025C42.6258 13.5528 43.5958 13.8142 44.6438 13.8142H54.9521L57.5958 11.2053Z"
    fill="white" stroke="white" stroke-width="0.459446"/>
  <path
    d="M74.9985 10.7143C76.1349 10.6359 77.0972 10.158 77.8805 9.28311C78.6886 8.40821 79.0939 7.36137 79.0939 6.14259C79.0939 4.87071 78.6637 3.79605 77.8034 2.92116C76.943 2.02098 75.9211 1.56836 74.7325 1.56836H63.0928L60.5914 4.15259V4.23097H74.735C75.2397 4.23097 75.6699 4.41556 76.023 4.78726C76.401 5.15897 76.5924 5.60906 76.5924 6.14006C76.5924 6.69635 76.3512 7.22736 75.8713 7.73055C75.6948 7.94295 75.4411 8.04915 75.1129 8.04915H60.5988L60.5889 10.6334V13.8144H63.0904V10.7143H71.393L74.4664 13.8144H78.1068L74.9985 10.7143Z"
    fill="white" stroke="white" stroke-width="0.459446"/>
  <path d="M142.501 1.84033L140.038 4.48059H134.421V13.8142H131.882V4.48059H123.724L126.225 1.84033H142.501Z"
        fill="white" stroke="white" stroke-width="0.459446"/>
  <path
    d="M162.614 3.26322C161.716 2.31547 160.613 1.84033 159.306 1.84033H149.878C148.597 1.84033 147.494 2.31547 146.57 3.26322C145.672 4.21097 145.223 5.34475 145.223 6.66206V9.03269C145.223 10.35 145.672 11.4838 146.57 12.4315C147.494 13.3541 148.597 13.8142 149.878 13.8142H159.306C160.613 13.8142 161.719 13.3541 162.614 12.4315C163.538 11.4838 164 10.35 164 9.03269V6.66206C164 5.34475 163.538 4.21097 162.614 3.26322ZM161.461 9.03269C161.461 9.63855 161.244 10.1514 160.808 10.5737C160.396 10.9961 159.897 11.2072 159.306 11.2072H149.878C149.288 11.2072 148.788 10.9961 148.377 10.5737C147.966 10.1514 147.761 9.63855 147.761 9.03269V6.66206C147.761 6.0562 147.966 5.54335 148.377 5.12101C148.788 4.69867 149.288 4.4875 149.878 4.4875H159.306C159.897 4.4875 160.396 4.69867 160.808 5.12101C161.244 5.54335 161.461 6.0562 161.461 6.66206V9.03269Z"
    fill="white" stroke="white" stroke-width="0.459446"/>
  <path d="M79.0184 20.9878L75.5903 23.5998H60.48V20.9878H79.0184Z" fill="white" stroke="white"
        stroke-width="0.459446"/>
  <path d="M79.0184 25.7241L75.5903 28.3361H60.48V25.7241H79.0184Z" fill="white" stroke="white"
        stroke-width="0.459446"/>
  <path d="M79.0184 30.3501L75.5903 32.9621H60.48V30.3501H79.0184Z" fill="white" stroke="white"
        stroke-width="0.459446"/>
  <path
    d="M57.5958 30.4621H44.6438C43.7491 30.4621 42.9827 30.1329 42.3444 29.4743C41.7061 28.8158 41.3869 28.0241 41.3869 27.1042C41.3869 26.1567 41.7061 25.3524 42.3444 24.6939C42.9827 24.0353 43.7491 23.7061 44.6438 23.7061H54.9521L57.5958 21.0972H44.6438C43.5958 21.0972 42.6258 21.3736 41.7312 21.9266C40.8366 22.4544 40.1229 23.1783 39.5851 24.1007C39.0749 24.9955 38.8186 25.9983 38.8186 27.1042C38.8186 28.185 39.0749 29.1853 39.5851 30.1077C40.1203 31.0025 40.8366 31.7289 41.7312 32.2818C42.6258 32.8096 43.5958 33.071 44.6438 33.071H54.9521L57.5958 30.4621Z"
    fill="white" stroke="white" stroke-width="0.459446"/>
  <path
    d="M83.845 30.2006V20.2812L81.2712 22.84V31.1069C81.2712 31.5801 81.4374 31.9857 81.7699 32.3262C82.1023 32.6416 82.5002 32.7994 82.9611 32.7994H100.048V30.2006H83.845Z"
    fill="white" stroke="white" stroke-width="0.459446"/>
  <path
    d="M104.527 30.2006V20.2812L101.953 22.84V31.1069C101.953 31.5801 102.119 31.9857 102.452 32.3262C102.784 32.6416 103.182 32.7994 103.643 32.7994H120.73V30.2006H104.527Z"
    fill="white" stroke="white" stroke-width="0.459446"/>
  <path
    d="M93.2853 8.65238L100.321 1.56836H96.7168L92.0672 6.24855L90.7959 7.52821L89.517 6.2409L84.875 1.56836H81.2712L88.8788 9.22848L89.517 9.87086V12.4455V13.8144H92.0672V12.4378V9.87851L93.2853 8.65238Z"
    fill="white" stroke="white" stroke-width="0.459446"/>
  <path fill-rule="evenodd" clip-rule="evenodd"
        d="M101.899 10.8352L101.899 10.8354V13.7673H104.433V10.9325H104.433V10.8757H116.264C117.468 10.8757 118.491 10.4399 119.337 9.5684C120.208 8.67171 120.642 7.58862 120.642 6.32166C120.642 5.07989 120.206 4.01191 119.337 3.1127C118.493 2.216 117.468 1.76514 116.264 1.76514H104.433L101.899 4.33936V4.41744H116.264C116.775 4.41744 117.211 4.60131 117.569 4.97158C117.926 5.34184 118.105 5.79019 118.105 6.31914C118.105 6.90098 117.873 7.42741 117.415 7.90347C117.183 8.14024 116.929 8.26114 116.647 8.26114H104.433L104.426 8.26857H101.899V10.8352Z"
        fill="white"/>
  <path
    d="M101.899 10.8352L102.063 10.9963L102.129 10.9293V10.8352H101.899ZM101.899 10.8354L101.735 10.6743L101.669 10.7413V10.8354H101.899ZM101.899 13.7673H101.669V13.997H101.899V13.7673ZM104.433 13.7673V13.997H104.663V13.7673H104.433ZM104.433 10.9325V10.7028H104.203V10.9325H104.433ZM104.433 10.9325V11.1622H104.663V10.9325H104.433ZM104.433 10.8757V10.6459H104.204V10.8757H104.433ZM119.337 9.5684L119.172 9.40829L119.172 9.40836L119.337 9.5684ZM119.337 3.1127L119.17 3.27014L119.172 3.27234L119.337 3.1127ZM104.433 1.76514V1.53541H104.337L104.269 1.60398L104.433 1.76514ZM101.899 4.33936L101.735 4.17821L101.669 4.24526V4.33936H101.899ZM101.899 4.41744H101.669V4.64716H101.899V4.41744ZM117.569 4.97158L117.734 4.81197V4.81197L117.569 4.97158ZM117.415 7.90347L117.579 8.06416L117.58 8.06281L117.415 7.90347ZM104.433 8.26114V8.03142H104.337L104.269 8.09999L104.433 8.26114ZM104.426 8.26857V8.49829H104.522L104.589 8.42972L104.426 8.26857ZM101.899 8.26857V8.03885H101.67V8.26857H101.899ZM101.736 10.6741L101.735 10.6743L102.063 10.9965L102.063 10.9963L101.736 10.6741ZM101.669 10.8354V13.7673H102.129V10.8354H101.669ZM101.899 13.997H104.433V13.5375H101.899V13.997ZM104.663 13.7673V10.9325H104.203V13.7673H104.663ZM104.433 11.1622H104.433V10.7028H104.433V11.1622ZM104.663 10.9325V10.8757H104.204V10.9325H104.663ZM104.433 11.1054H116.264V10.6459H104.433V11.1054ZM116.264 11.1054C117.531 11.1054 118.613 10.6439 119.502 9.72844L119.172 9.40836C118.368 10.2359 117.405 10.6459 116.264 10.6459V11.1054ZM119.502 9.72851C120.416 8.78802 120.871 7.64713 120.871 6.32166H120.412C120.412 7.53011 120.001 8.55539 119.172 9.40829L119.502 9.72851ZM120.871 6.32166C120.871 5.01955 120.412 3.89455 119.502 2.95306L119.172 3.27234C120 4.12927 120.412 5.14022 120.412 6.32166H120.871ZM119.504 2.95527C118.618 2.01382 117.533 1.53541 116.264 1.53541V1.99486C117.403 1.99486 118.368 2.41819 119.17 3.27013L119.504 2.95527ZM116.264 1.53541H104.433V1.99486H116.264V1.53541ZM104.269 1.60398L101.735 4.17821L102.063 4.50051L104.597 1.92629L104.269 1.60398ZM101.669 4.33936V4.41744H102.129V4.33936H101.669ZM101.899 4.64716H116.264V4.18772H101.899V4.64716ZM116.264 4.64716C116.713 4.64716 117.089 4.8058 117.403 5.13118L117.734 4.81197C117.333 4.39682 116.837 4.18772 116.264 4.18772V4.64716ZM117.403 5.13118C117.719 5.45744 117.875 5.84808 117.875 6.31914H118.335C118.335 5.7323 118.134 5.22625 117.734 4.81197L117.403 5.13118ZM117.875 6.31914C117.875 6.83247 117.674 7.30385 117.25 7.74412L117.58 8.06281C118.073 7.55098 118.335 6.96949 118.335 6.31914H117.875ZM117.251 7.74279C117.053 7.94525 116.855 8.03142 116.647 8.03142V8.49086C117.003 8.49086 117.314 8.33522 117.579 8.06415L117.251 7.74279ZM116.647 8.03142H104.433V8.49086H116.647V8.03142ZM104.269 8.09999L104.262 8.10742L104.589 8.42972L104.597 8.42229L104.269 8.09999ZM104.426 8.03885H101.899V8.49829H104.426V8.03885ZM101.67 8.26857V10.8352H102.129V8.26857H101.67Z"
    fill="white"/>
  <path d="M134.836 28.6229H136.83L136.625 29.7802H133.109L134.213 23.5309H135.735L134.836 28.6229Z" fill="white"/>
  <path
    d="M141.883 28.6764H139.55L138.98 29.7802H137.387L140.752 23.5309H142.515L143.672 29.7802H142.061L141.883 28.6764ZM141.704 27.5191L141.339 25.2045L140.147 27.5191H141.704Z"
    fill="white"/>
  <path
    d="M150.467 25.1511C150.402 25.5191 150.25 25.8247 150.013 26.068C149.775 26.3114 149.491 26.4805 149.158 26.5754C149.455 26.6407 149.689 26.7861 149.862 27.0117C150.034 27.2372 150.12 27.5013 150.12 27.8039C150.12 27.8989 150.111 27.9909 150.093 28.0799C150.004 28.6022 149.749 29.0176 149.327 29.3262C148.906 29.6289 148.369 29.7802 147.716 29.7802H144.805L145.909 23.5309H148.722C149.286 23.5309 149.722 23.6466 150.031 23.8781C150.339 24.1096 150.494 24.43 150.494 24.8395C150.494 24.9404 150.485 25.0443 150.467 25.1511ZM147.974 26.068C148.229 26.068 148.434 26.0116 148.589 25.8989C148.743 25.7861 148.838 25.6229 148.873 25.4093C148.879 25.3737 148.882 25.3262 148.882 25.2668C148.882 25.0947 148.826 24.9642 148.713 24.8751C148.6 24.7802 148.434 24.7327 148.215 24.7327H147.218L146.986 26.068H147.974ZM148.58 27.8752C148.591 27.8039 148.597 27.7505 148.597 27.7149C148.597 27.5428 148.535 27.4093 148.41 27.3143C148.286 27.2134 148.114 27.163 147.894 27.163H146.79L146.541 28.5695H147.663C147.924 28.5695 148.132 28.5102 148.286 28.3915C148.44 28.2728 148.538 28.1007 148.58 27.8752Z"
    fill="white"/>
  <path
    d="M153.602 29.8425C152.925 29.8425 152.374 29.6971 151.946 29.4063C151.525 29.1096 151.314 28.6912 151.314 28.1511C151.314 28.0977 151.32 28.0176 151.332 27.9108H152.917C152.899 28.1363 152.952 28.3143 153.077 28.4449C153.201 28.5755 153.391 28.6407 153.647 28.6407C153.878 28.6407 154.059 28.5903 154.19 28.4894C154.326 28.3885 154.394 28.2461 154.394 28.0621C154.394 27.8722 154.308 27.7179 154.136 27.5992C153.97 27.4805 153.709 27.347 153.353 27.1986C153.009 27.0562 152.727 26.9226 152.507 26.798C152.293 26.6674 152.106 26.4924 151.946 26.2728C151.786 26.0532 151.706 25.7772 151.706 25.4449C151.7 25.0354 151.801 24.6793 152.009 24.3766C152.216 24.0739 152.504 23.8425 152.872 23.6823C153.24 23.522 153.661 23.4419 154.136 23.4419C154.563 23.4419 154.943 23.5101 155.276 23.6466C155.608 23.7772 155.866 23.9701 156.05 24.2253C156.234 24.4745 156.326 24.7713 156.326 25.1155C156.326 25.2045 156.323 25.2698 156.317 25.3113H154.697C154.703 25.2876 154.706 25.252 154.706 25.2045C154.706 25.0383 154.647 24.9048 154.528 24.8039C154.415 24.6971 154.258 24.6437 154.056 24.6437C153.842 24.6437 153.667 24.6971 153.531 24.8039C153.4 24.9048 153.335 25.0443 153.335 25.2223C153.335 25.4004 153.418 25.5517 153.584 25.6763C153.75 25.795 154.009 25.9345 154.359 26.0947C154.709 26.255 154.994 26.4033 155.213 26.5398C155.439 26.6763 155.632 26.8603 155.792 27.0918C155.952 27.3173 156.032 27.5962 156.032 27.9286C156.032 28.2965 155.934 28.6259 155.739 28.9167C155.543 29.2075 155.261 29.436 154.893 29.6022C154.525 29.7624 154.095 29.8425 153.602 29.8425Z"
    fill="white"/>
  <defs>
    <clipPath id="clip0_42_2050">
      <rect width="35.6494" height="34.2888" fill="white"/>
    </clipPath>
  </defs>
</svg>
