<svg width="100" height="100" viewBox="0 0 100 100" fill="none" xmlns="http://www.w3.org/2000/svg">
<g clip-path="url(#clip0_609_94)">
<path d="M50 100C77.6142 100 100 77.6142 100 50C100 22.3858 77.6142 0 50 0C22.3858 0 0 22.3858 0 50C0 77.6142 22.3858 100 50 100Z" fill="#5865F2"/>
<path d="M67.3268 34.0821C64.085 32.5942 60.6638 31.5332 57.149 30.9258C57.117 30.9197 57.0839 30.9239 57.0545 30.9378C57.025 30.9516 57.0007 30.9744 56.985 31.003C56.5183 31.8489 56.0946 32.7179 55.7154 33.6065C51.9269 33.0311 48.0733 33.0311 44.2848 33.6065C43.9039 32.7156 43.4742 31.8465 42.9977 31.003C42.9813 30.975 42.9569 30.9527 42.9276 30.939C42.8983 30.9252 42.8655 30.9206 42.8336 30.9258C39.3198 31.5323 35.8998 32.5933 32.6598 34.0821C32.6319 34.0938 32.6083 34.1139 32.5924 34.1397C26.1109 43.8243 24.3356 53.2706 25.2066 62.5977C25.2091 62.6206 25.2162 62.6428 25.2274 62.6629C25.2387 62.6831 25.2539 62.7007 25.2721 62.7149C29.0463 65.5107 33.2682 67.6449 37.7574 69.0264C37.7891 69.0359 37.8229 69.0354 37.8543 69.0251C37.8858 69.0148 37.9133 68.9952 37.9332 68.9688C38.8971 67.6565 39.7513 66.2671 40.4869 64.8145C40.497 64.7946 40.5027 64.7727 40.5037 64.7504C40.5047 64.7281 40.5009 64.7059 40.4927 64.6851C40.4845 64.6644 40.472 64.6456 40.456 64.63C40.4401 64.6145 40.421 64.6024 40.4 64.5948C39.0529 64.0802 37.7487 63.4598 36.4996 62.7393C36.4769 62.726 36.4579 62.7073 36.4442 62.6848C36.4305 62.6624 36.4225 62.6369 36.4209 62.6107C36.4194 62.5844 36.4243 62.5582 36.4353 62.5343C36.4463 62.5104 36.463 62.4896 36.484 62.4737C36.7457 62.2784 37.0084 62.0733 37.2584 61.8663C37.2806 61.848 37.3074 61.8364 37.3359 61.8326C37.3644 61.8288 37.3933 61.833 37.4195 61.8448C45.6022 65.5811 54.4615 65.5811 62.5475 61.8448C62.5738 61.8321 62.6033 61.8273 62.6323 61.8307C62.6614 61.8342 62.6888 61.8458 62.7115 61.8643C62.9615 62.0704 63.2242 62.2774 63.4928 62.4737C63.5138 62.4894 63.5307 62.5101 63.5418 62.5339C63.553 62.5577 63.5581 62.5839 63.5568 62.6101C63.5554 62.6364 63.5476 62.6619 63.5341 62.6844C63.5205 62.707 63.5017 62.7258 63.4791 62.7393C62.2316 63.4668 60.9249 64.0875 59.5729 64.5948C59.5518 64.6027 59.5326 64.615 59.5167 64.6309C59.5007 64.6468 59.4883 64.6659 59.4803 64.687C59.4722 64.708 59.4688 64.7305 59.4701 64.753C59.4714 64.7755 59.4775 64.7975 59.4879 64.8174C60.2358 66.2621 61.0887 67.6499 62.0396 68.9698C62.0589 68.997 62.0863 69.0173 62.1179 69.028C62.1495 69.0387 62.1836 69.0392 62.2154 69.0293C66.7108 67.6519 70.9381 65.5174 74.7154 62.7178C74.7339 62.7044 74.7493 62.6872 74.7606 62.6673C74.7719 62.6474 74.7788 62.6253 74.7809 62.6026C75.8238 51.8174 73.0348 42.4483 67.3883 34.1436C67.3757 34.1165 67.3539 34.0947 67.3268 34.0821ZM41.7076 56.919C39.2438 56.919 37.2154 54.6573 37.2154 51.8799C37.2154 49.1026 39.2057 46.8409 41.7076 46.8409C44.2301 46.8409 46.2408 49.1221 46.1998 51.8799C46.2018 54.6573 44.2105 56.919 41.7076 56.919ZM58.3219 56.919C55.858 56.919 53.8297 54.6573 53.8297 51.8799C53.8297 49.1026 55.8199 46.8409 58.3219 46.8409C60.8443 46.8409 62.8551 49.1221 62.8141 51.8799C62.815 54.6573 60.8443 56.919 58.3219 56.919Z" fill="white"/>
</g>
<defs>
<clipPath id="clip0_609_94">
<rect width="100" height="100" fill="white"/>
</clipPath>
</defs>
</svg>
