<svg width="100" height="100" viewBox="0 0 100 100" fill="none" xmlns="http://www.w3.org/2000/svg">
<g clip-path="url(#clip0_609_97)">
<path d="M50 100C77.6142 100 100 77.6142 100 50C100 22.3858 77.6142 0 50 0C22.3858 0 0 22.3858 0 50C0 77.6142 22.3858 100 50 100Z" fill="#1DA1F2"/>
<path d="M75.9766 34.6484C74.1406 35.459 72.1777 36.0059 70.1074 36.2598C72.2168 34.9902 73.8379 32.9883 74.5996 30.6055C72.627 31.7578 70.4297 32.5977 68.1055 33.0664C66.2402 31.0742 63.5938 29.8242 60.6445 29.8242C55 29.8242 50.4199 34.4043 50.4199 40.0391C50.4199 40.8496 50.5176 41.6309 50.6836 42.373C42.1875 41.9727 34.6484 37.8906 29.6094 31.7187C28.7207 33.2227 28.2227 34.9609 28.2227 36.8652C28.2227 40.4199 30.0293 43.5449 32.7734 45.3809C31.0938 45.3223 29.5215 44.8633 28.1445 44.1016V44.2285C28.1445 49.1895 31.6602 53.3203 36.3477 54.2578C35.4883 54.4922 34.5801 54.6094 33.6523 54.6094C32.998 54.6094 32.373 54.5508 31.748 54.4336C33.0566 58.4961 36.8262 61.4551 41.3184 61.5332C37.832 64.2773 33.3984 65.9082 28.6426 65.9082C27.832 65.9082 27.0215 65.8594 26.2109 65.7715C30.7617 68.6719 36.123 70.3613 41.9141 70.3613C60.7129 70.3613 70.9961 54.7852 70.9961 41.2988C70.9961 40.8691 70.9961 40.4297 70.9668 39.9902C72.959 38.5547 74.707 36.748 76.0742 34.6973L75.9766 34.6484Z" fill="white"/>
</g>
<defs>
<clipPath id="clip0_609_97">
<rect width="100" height="100" fill="white"/>
</clipPath>
</defs>
</svg>
