<svg width="30" height="30" viewBox="0 0 30 30" fill="" xmlns="http://www.w3.org/2000/svg">
<path fill-rule="evenodd" clip-rule="evenodd" d="M27.4286 11.5628V4.53424L21.6 8.39139C19.6286 7.79139 17.4 7.44853 15 7.44853C12.6857 7.44853 10.5429 7.79139 8.65714 8.30567L2.57143 4.2771V11.5628C0.942857 13.02 0 14.82 0 16.7057C0 21.8485 6.68571 25.9628 15 25.9628C23.3143 25.9628 30 21.8485 30 16.7057C30 14.82 29.0571 13.02 27.4286 11.5628ZM2.91445 16.62C2.48588 18.0772 4.45731 20.22 7.45731 21.42C10.4573 22.62 13.2002 22.5343 13.6287 21.1629V21.0772L2.91445 16.62ZM22.5426 21.42C25.5426 20.22 27.5141 18.0772 27.0855 16.62L16.3712 21.0772V21.1629C16.7998 22.5343 19.6283 22.62 22.5426 21.42Z" fill=""/>
</svg>
