<svg width="32" height="32" viewBox="0 0 32 32" fill="" xmlns="http://www.w3.org/2000/svg">
<path d="M13.184 13.424C12.272 13.424 11.552 14.2239 11.552 15.1999C11.552 16.1759 12.288 16.9759 13.184 16.9759C14.096 16.9759 14.816 16.1759 14.816 15.1999C14.832 14.2239 14.096 13.424 13.184 13.424ZM19.024 13.424C18.112 13.424 17.392 14.2239 17.392 15.1999C17.392 16.1759 18.128 16.9759 19.024 16.9759C19.936 16.9759 20.656 16.1759 20.656 15.1999C20.656 14.2239 19.936 13.424 19.024 13.424Z" fill=""/>
<path d="M26.8001 0H5.36008C3.55208 0 2.08008 1.472 2.08008 3.296V24.928C2.08008 26.752 3.55208 28.224 5.36008 28.224H23.5041L22.6561 25.264L24.7041 27.168L26.6401 28.96L30.0801 32V3.296C30.0801 1.472 28.6081 0 26.8001 0ZM20.6241 20.896C20.6241 20.896 20.0481 20.208 19.5681 19.6C21.6641 19.008 22.4641 17.696 22.4641 17.696C21.8081 18.128 21.1841 18.432 20.6241 18.64C19.8241 18.976 19.0561 19.2 18.3041 19.328C16.7681 19.616 15.3601 19.536 14.1601 19.312C13.2481 19.136 12.4641 18.88 11.8081 18.624C11.4401 18.48 11.0401 18.304 10.6401 18.08C10.5921 18.048 10.5441 18.032 10.4961 18C10.4641 17.984 10.4481 17.968 10.4321 17.952C10.1441 17.792 9.98408 17.68 9.98408 17.68C9.98408 17.68 10.7521 18.96 12.7841 19.568C12.3041 20.176 11.7121 20.896 11.7121 20.896C8.17608 20.784 6.83208 18.464 6.83208 18.464C6.83208 13.312 9.13608 9.136 9.13608 9.136C11.4401 7.408 13.6321 7.456 13.6321 7.456L13.7921 7.648C10.9121 8.48 9.58408 9.744 9.58408 9.744C9.58408 9.744 9.93608 9.552 10.5281 9.28C12.2401 8.528 13.6001 8.32 14.1601 8.272C14.2561 8.256 14.3361 8.24 14.4321 8.24C15.4081 8.112 16.5121 8.08 17.6641 8.208C19.1841 8.384 20.8161 8.832 22.4801 9.744C22.4801 9.744 21.2161 8.544 18.4961 7.712L18.7201 7.456C18.7201 7.456 20.9121 7.408 23.2161 9.136C23.2161 9.136 25.5201 13.312 25.5201 18.464C25.5201 18.464 24.1601 20.784 20.6241 20.896Z" fill=""/>
</svg>
