<svg width="36" height="36" viewBox="0 0 36 36" fill="" xmlns="http://www.w3.org/2000/svg">
<path d="M4.49951 4.5H31.4995C31.8973 4.5 32.2789 4.65804 32.5602 4.93934C32.8415 5.22064 32.9995 5.60218 32.9995 6V30C32.9995 30.3978 32.8415 30.7794 32.5602 31.0607C32.2789 31.342 31.8973 31.5 31.4995 31.5H4.49951C4.10169 31.5 3.72016 31.342 3.43885 31.0607C3.15755 30.7794 2.99951 30.3978 2.99951 30V6C2.99951 5.60218 3.15755 5.22064 3.43885 4.93934C3.72016 4.65804 4.10169 4.5 4.49951 4.5ZM18.0895 17.5245L8.47151 9.357L6.52901 11.643L18.109 21.4755L29.4805 11.6355L27.5185 9.366L18.0895 17.5245Z" fill=""/>
</svg>
