<svg width="30" height="30" viewBox="0 0 30 30" xmlns="http://www.w3.org/2000/svg">
<path d="M9.4344 27.1883C20.7552 27.1883 26.9472 17.8091 26.9472 9.67553C26.9472 9.40913 26.9472 9.14393 26.9292 8.87993C28.1338 8.00862 29.1736 6.92978 30 5.69393C28.8767 6.19193 27.685 6.51837 26.4648 6.66233C27.7498 5.89319 28.7114 4.68331 29.1708 3.25793C27.9626 3.97494 26.6408 4.48021 25.2624 4.75193C24.3344 3.76515 23.107 3.11173 21.7702 2.89278C20.4335 2.67384 19.0618 2.90157 17.8675 3.54074C16.6731 4.17992 15.7228 5.1949 15.1634 6.42861C14.6041 7.66233 14.4669 9.04601 14.7732 10.3655C12.3261 10.2428 9.9322 9.60682 7.74682 8.49893C5.56144 7.39105 3.63345 5.836 2.088 3.93473C1.30091 5.28972 1.05984 6.89376 1.41387 8.42026C1.76791 9.94675 2.69043 11.2809 3.9936 12.1511C3.01404 12.1224 2.05581 11.8582 1.2 11.3807V11.4587C1.20039 12.8798 1.69231 14.257 2.59234 15.3567C3.49236 16.4564 4.74508 17.2109 6.138 17.4923C5.23185 17.7395 4.28109 17.7756 3.3588 17.5979C3.75227 18.8208 4.51804 19.8902 5.54905 20.6566C6.58006 21.423 7.82478 21.848 9.1092 21.8723C7.83305 22.8754 6.37164 23.6171 4.80859 24.0548C3.24554 24.4926 1.61152 24.6179 0 24.4235C2.81479 26.2298 6.08991 27.1879 9.4344 27.1835" />
</svg>
