<svg width="20" height="20" viewBox="0 0 20 20" fill="" xmlns="http://www.w3.org/2000/svg">
<circle cx="10.0933" cy="10.0913" r="9.53271" fill="url(#paint0_radial_940_317)"/>
<path fill-rule="evenodd" clip-rule="evenodd" d="M16.8133 2.68021C16.3922 4.07945 15.1701 5.54421 13.2698 7.29216C16.0748 9.6017 17.2223 13.8762 17.1145 17.0273C18.8986 15.2212 20 12.7392 20 10C20 7.10975 18.7738 4.50588 16.8133 2.68021ZM15.5998 1.71375C14.8019 2.77918 13.1992 4.11586 10.1924 5.77246C7.03812 4.07913 5.35082 2.71794 4.51181 1.63925C6.08732 0.602946 7.97325 0 10 0C12.0748 0 14.0021 0.631901 15.5998 1.71375ZM3.29344 2.58221C3.64967 3.91479 4.76958 5.33227 6.72776 7.29216C3.82443 9.68267 2.91256 14.1784 3.22413 17.3545C1.24179 15.5272 0 12.9086 0 10C0 7.05763 1.27078 4.41207 3.29344 2.58221ZM4.22345 18.1638C5.85488 19.3203 7.84806 20 10 20C12.3061 20 14.4299 19.2194 16.1216 17.908C15.5905 15.2775 14.2057 11.0853 10.1924 9.00101C6.11656 11.0259 4.73769 15.5186 4.22345 18.1638Z" fill=""/>
<defs>
<radialGradient id="paint0_radial_940_317" cx="0" cy="0" r="1" gradientUnits="userSpaceOnUse" gradientTransform="translate(10.0933 7.89412) rotate(90) scale(11.1059)">
<stop stop-color="#595C62"/>
<stop offset="1" stop-color="#24272E"/>
</radialGradient>
</defs>
</svg>
