<svg width="18" height="18" viewBox="0 0 18 18" fill="" xmlns="http://www.w3.org/2000/svg">
<g clip-path="url(#clip0_147_1199)">
<path d="M17.6412 4.63918C17.5395 4.25624 17.3389 3.90674 17.0596 3.62567C16.7803 3.3446 16.4321 3.14181 16.0499 3.03759C14.6426 2.65918 9.01758 2.65918 9.01758 2.65918C9.01758 2.65918 3.39258 2.65918 1.98531 3.03759C1.60303 3.14181 1.25482 3.3446 0.975544 3.62567C0.696265 3.90674 0.495707 4.25624 0.393942 4.63918C0.0175782 6.05259 0.0175781 9.00009 0.0175781 9.00009C0.0175781 9.00009 0.0175782 11.9476 0.393942 13.361C0.495707 13.7439 0.696265 14.0934 0.975544 14.3745C1.25482 14.6556 1.60303 14.8584 1.98531 14.9626C3.39258 15.341 9.01758 15.341 9.01758 15.341C9.01758 15.341 14.6426 15.341 16.0499 14.9626C16.4321 14.8584 16.7803 14.6556 17.0596 14.3745C17.3389 14.0934 17.5395 13.7439 17.6412 13.361C18.0176 11.9476 18.0176 9.00009 18.0176 9.00009C18.0176 9.00009 18.0176 6.05259 17.6412 4.63918Z" fill=""/>
<path d="M7.177 11.6762V6.32324L11.8815 8.99972L7.177 11.6762Z" fill="#161718"/>
</g>
<defs>
<clipPath id="clip0_147_1199">
<rect width="18" height="18" fill=""/>
</clipPath>
</defs>
</svg>
